# xmcd CD database file
#
# Track frame offsets:
#	150
#	13281
#	29515
#	44998
#	63988
#	77561
#	94235
#	111808
#	128610
#	144814
#
# Disc length: 2225 seconds
#
# Revision: 0
# Processed by: cddbd v1.5.2PL0 Copyright (c) Steve Scherf et al.
# Submitted via: CDex 1.51
#
DISCID=8508af0a
DTITLE=Cody Rowe - Texas State Of Mind
DYEAR=2010
DGENRE=Country
TTITLE0=Walking On By
TTITLE1=Texas State Of Mind
TTITLE2=Half A Heart
TTITLE3=Little White Lies
TTITLE4=Heads You Win
TTITLE5=Hard On The Whisky
TTITLE6=Room To Roam
TTITLE7=Trashy Women
TTITLE8=Caveman
TTITLE9=One Less Cowboy
EXTD=YEAR: 2010
EXTT0=
EXTT1=
EXTT2=
EXTT3=
EXTT4=
EXTT5=
EXTT6=
EXTT7=
EXTT8=
EXTT9=
PLAYORDER=
